<svg width="27" height="26" viewBox="0 0 27 26" fill="none" xmlns="http://www.w3.org/2000/svg">
<path d="M26.9541 13.0094L26.9311 13.0208L23.0576 3.38002H24.8251C25.142 3.38002 25.3989 3.12308 25.3989 2.80616C25.3989 2.48925 25.142 2.23231 24.8251 2.23231H14.0251V0.573858C14.0251 0.256945 13.7681 0 13.4512 0C13.1343 0 12.8774 0.256945 12.8774 0.573858V2.22657H2.0831C1.76619 2.22657 1.50925 2.48351 1.50925 2.80043C1.50925 3.11734 1.76619 3.37428 2.0831 3.37428H3.92519L0.0459086 13.0094C0.0172157 13.0766 0.00164984 13.1487 0 13.2217C0 15.857 2.13633 17.9933 4.77163 17.9933C7.40692 17.9933 9.54325 15.857 9.54325 13.2217C9.5416 13.1487 9.52604 13.0766 9.49734 13.0094L5.6238 3.36854H12.8774V21.1122C10.1401 21.3188 7.99957 22.983 7.99957 24.9972C7.99957 25.3142 8.25652 25.5711 8.57343 25.5711H18.329C18.6459 25.5711 18.9029 25.3142 18.9029 24.9972C18.9029 22.983 16.7624 21.3188 14.0251 21.1122V3.36854H21.3532L17.5027 13.0094C17.474 13.0766 17.4584 13.1487 17.4567 13.2217C17.4567 15.857 19.5931 17.9933 22.2284 17.9933C24.8637 17.9933 27 15.857 27 13.2217C26.9984 13.1487 26.9828 13.0766 26.9541 13.0094ZM4.76876 16.8542C2.99138 16.8518 1.47768 15.5616 1.19362 13.807H8.32094C8.03831 15.553 6.53746 16.8406 4.76876 16.8542ZM8.11435 12.6593H1.43464L4.78023 4.33263L8.11435 12.6593ZM17.6519 24.4234H9.24485C9.6695 23.1896 11.4198 22.237 13.4455 22.237C15.4712 22.237 17.2272 23.1896 17.6519 24.4234ZM22.2026 4.33836L25.5367 12.6593H18.857L22.2026 4.33836ZM22.2026 16.8542V16.8599C20.432 16.8458 18.9305 15.5553 18.6504 13.807H25.7777C25.4936 15.5616 23.9799 16.8518 22.2026 16.8542Z" fill="black"/>
</svg>
